<?xml version="1.0" encoding="UTF-8" standalone="no"?><!DOCTYPE svg PUBLIC "-//W3C//DTD SVG 1.1//EN" "http://www.w3.org/Graphics/SVG/1.1/DTD/svg11.dtd"><svg width="100%" height="100%" viewBox="0 0 1200 1200" version="1.1" xmlns="http://www.w3.org/2000/svg" xmlns:xlink="http://www.w3.org/1999/xlink" xml:space="preserve" xmlns:serif="http://www.serif.com/" style="fill-rule:evenodd;clip-rule:evenodd;stroke-linejoin:round;stroke-miterlimit:2;"><g><rect x="0" y="0" width="1200" height="1200" style="fill:#2fbb9d;fill-rule:nonzero;"/><path d="M999,600c0,220.361 -178.639,399 -399,399c-220.361,0 -399,-178.639 -399,-399c0,-220.361 178.639,-399 399,-399c220.361,0 399,178.639 399,399Z" style="fill:#4ec0a9;fill-rule:nonzero;"/><path d="M408.451,187.287l153.267,0l0,104.432l123.643,0l0,54.518l-7.169,0l0,-47.347l-120.058,0l-3.584,0l0,-3.586l0,-100.849l-146.099,0l0,-7.168Z" style="fill:#fedb7a;fill-rule:nonzero;"/><path d="M290.15,238.758l-78.866,0l0,135.887l-7.169,0l0,-139.471l0,-3.585l86.035,0l0,7.169Z" style="fill:#fedb7a;fill-rule:nonzero;"/><path d="M330.463,411.102l597.112,0c12.109,0 22.052,9.943 22.052,22.117l0,407.86l-641.281,0l0,-407.86c0,-12.174 9.942,-22.117 22.117,-22.117Z" style="fill:#34465c;"/><path d="M208.984,915.685l840.006,0c2.3,0 1.82,-1.761 -1.02,-3.923l-90.16,-69.33c-2.839,-2.166 -7.035,-3.922 -9.334,-3.922l-319.455,0l-319.458,0c-2.3,0 -6.493,1.756 -9.334,3.922l-90.229,69.33c-2.841,2.162 -3.315,3.923 -1.016,3.923Z" style="fill:#34404f;"/><path d="M212.367,910.68l833.303,0c6.29,0 6.9,5.139 1.35,11.498l-11.29,12.785c-5.61,6.356 -15.35,11.496 -21.65,11.496l-770.126,0c-6.359,0 -16.098,-5.14 -21.644,-11.496l-11.296,-12.785c-5.615,-6.359 -5.005,-11.498 1.353,-11.498Z" style="fill:#34465c;"/><path d="M563.545,877.131l130.883,0l19.679,21.575l-74.671,0l-20.832,0l-74.741,0l19.682,-21.575Z" style="fill:#6e8090;"/><rect x="328.502" y="438.697" width="601.035" height="380.468" style="fill:#fee8ad;"/><path d="M989.939,339.54c4.736,-7.711 7.779,-16.166 9.13,-24.958l26.651,-4.6l-7.17,-41.327l-26.653,4.667c-2.092,-3.856 -4.596,-7.576 -7.505,-11.093c-2.91,-3.45 -6.156,-6.561 -9.535,-9.333l9.264,-25.365l-39.298,-14.475l-9.334,25.432c-8.859,-0.27 -17.789,1.217 -26.176,4.532l-17.315,-20.765l-32.197,26.921l17.317,20.696c-4.735,7.711 -7.779,16.233 -9.133,24.96l-26.648,4.667l7.17,41.258l26.649,-4.599c2.097,3.856 4.6,7.576 7.506,11.025c2.91,3.517 6.157,6.629 9.539,9.334l-9.334,25.433l39.367,14.405l9.332,-25.431c8.862,0.27 17.789,-1.217 26.176,-4.531l17.317,20.765l32.191,-26.853l-17.311,-20.765Z" style="fill:#fff;"/><path d="M959.976,336.361c17.45,-14.611 19.818,-40.583 5.208,-58.102c-14.612,-17.45 -40.584,-19.818 -58.104,-5.207c-17.449,14.609 -19.817,40.651 -5.207,58.101c14.61,17.519 40.584,19.817 58.103,5.208Zm-12.986,-15.557c8.858,-7.44 10.078,-20.63 2.637,-29.491c-7.44,-8.928 -20.629,-10.078 -29.559,-2.705c-8.861,7.44 -10.078,20.697 -2.637,29.557c7.438,8.861 20.628,10.079 29.559,2.639Z" style="fill:#363f49;"/><path d="M819.76,252.761c-2.504,-5.751 -6.156,-10.891 -10.62,-15.084l7.846,-17.046l-26.511,-12.175l-7.848,17.045c-2.978,-0.338 -6.088,-0.338 -9.268,-0.067c-3.11,0.338 -6.155,0.948 -9.063,1.825l-10.89,-15.353l-23.807,16.842l10.889,15.354c-3.586,4.938 -6.292,10.619 -7.711,16.774l-18.737,1.691l2.706,29.017l18.736,-1.758c2.571,5.75 6.222,10.89 10.687,15.083l-7.845,17.112l26.447,12.108l7.847,-17.046c3.041,0.339 6.152,0.339 9.263,0.069c3.182,-0.271 6.224,-0.88 9.134,-1.759l10.888,15.286l23.742,-16.842l-10.889,-15.354c3.652,-4.937 6.289,-10.62 7.708,-16.708l18.738,-1.756l-2.706,-29.018l-18.736,1.76Z" style="fill:#fff;"/><path d="M806.166,268.655c-1.488,-15.759 -15.422,-27.327 -31.182,-25.905c-15.76,1.488 -27.327,15.421 -25.908,31.18c1.49,15.76 15.49,27.394 31.251,25.906c15.759,-1.488 27.323,-15.421 25.839,-31.181Zm-14.003,1.284c-0.744,-7.981 -7.846,-13.866 -15.894,-13.121c-7.982,0.744 -13.866,7.847 -13.122,15.827c0.744,7.982 7.846,13.934 15.828,13.19c8.048,-0.812 13.933,-7.846 13.188,-15.896Z" style="fill:#363f49;"/><path d="M351.635,133.716c-29.085,0 -53.502,18.668 -60.403,43.965c-28.271,3.043 -50.254,25.567 -50.254,52.894c0,29.488 25.5,53.365 56.883,53.365l145.829,0c27.123,0 49.106,-20.628 49.106,-46.061c0,-18.939 -12.243,-35.239 -29.626,-42.275l0,-0.945c0,-17.992 -15.557,-32.534 -34.698,-32.534c-7.44,0 -14.409,2.231 -20.021,5.951c-9.809,-20.224 -31.587,-34.36 -56.816,-34.36Z" style="fill:#fff;"/><path d="M550.356,256.073c-15.219,0 -27.935,9.741 -31.52,22.93c-14.745,1.624 -26.243,13.393 -26.243,27.664c0,15.354 13.257,27.799 29.693,27.799l76.093,0c14.136,0 25.635,-10.754 25.635,-24.011c0,-9.875 -6.358,-18.397 -15.488,-22.049l0,-0.543c0,-9.333 -8.049,-16.976 -18.06,-16.976c-3.924,0 -7.508,1.15 -10.485,3.11c-5.073,-10.551 -16.436,-17.924 -29.625,-17.924Z" style="fill:#fff;"/><rect x="873.6" y="595.823" width="201.09" height="258.649" style="fill:#fff;"/><path d="M974.179,556.321c-6.087,0 -11.026,4.938 -11.026,11.027c0,6.018 4.939,10.956 11.026,10.956c6.019,0 10.958,-4.938 10.958,-10.956c0,-6.089 -4.939,-11.027 -10.958,-11.027Zm101.801,39.502l-101.801,0l-101.796,0c-4.059,0 -7.305,-3.316 -7.305,-7.305l0,-10.824c0,-3.99 3.246,-7.302 7.305,-7.302l73.455,0c-0.135,-1.017 -0.203,-2.03 -0.203,-3.044c0,-15.762 12.783,-28.546 28.544,-28.546c15.693,0 28.481,12.784 28.481,28.546c0,1.014 -0.07,2.027 -0.14,3.044l73.46,0c3.98,0 7.3,3.312 7.3,7.302l0,10.824c0,3.989 -3.32,7.305 -7.3,7.305Z" style="fill:#f06858;"/><path d="M1075.98,595.823l-101.801,0l-101.796,0c-4.059,0 -7.305,-3.316 -7.305,-7.305l0,-0.067l218.202,0l0,0.067c0,3.989 -3.32,7.305 -7.3,7.305Z" style="fill:#c02629;"/><path d="M1041.82,854.472l32.871,-32.872l-32.871,0.471l0,32.401Z" style="fill:#d1d2d4;"/><rect x="903.225" y="632.482" width="141.835" height="12.039" style="fill:#7c7d7d;"/><rect x="903.225" y="678.949" width="141.835" height="12.04" style="fill:#7c7d7d;"/><rect x="903.225" y="725.485" width="141.835" height="12.039" style="fill:#7c7d7d;"/><rect x="903.225" y="771.951" width="141.835" height="12.041" style="fill:#7c7d7d;"/><path d="M147.568,345.83l677.331,0c9.404,0 17.045,7.711 17.045,17.112l0,385.405c0,9.403 -7.641,17.114 -17.045,17.114l-677.331,0c-9.401,0 -17.111,-7.711 -17.111,-17.114l0,-385.405c0,-9.401 7.71,-17.112 17.111,-17.112Z" style="fill:#fff;"/><path d="M145.472,345.83l681.457,0c8.251,0 15.015,6.764 15.015,15.016l0,46.13c0,0.675 -0.539,1.217 -1.216,1.217l-710.271,0l0,-47.347c0,-8.252 6.763,-15.016 15.015,-15.016Z" style="fill:#353f49;"/><path d="M165.629,389.998c7.236,0 13.053,-6.155 13.053,-13.663c0,-7.576 -5.817,-13.662 -13.053,-13.662c-7.171,0 -13.056,6.086 -13.056,13.662c0,7.508 5.885,13.663 13.056,13.663Z" style="fill:#f47b56;"/><path d="M202.154,389.998c7.168,0 13.053,-6.155 13.053,-13.663c0,-7.576 -5.885,-13.662 -13.053,-13.662c-7.238,0 -13.055,6.086 -13.055,13.662c0,7.508 5.817,13.663 13.055,13.663Z" style="fill:#77cedd;"/><path d="M238.678,389.998c7.169,0 13.055,-6.155 13.055,-13.663c0,-7.576 -5.886,-13.662 -13.055,-13.662c-7.238,0 -13.122,6.086 -13.122,13.662c0,7.508 5.884,13.663 13.122,13.663Z" style="fill:#fedb7a;"/><rect x="271.55" y="364.836" width="550.171" height="25.906" style="fill:#fff;"/><rect x="187.61" y="432.543" width="152.661" height="20.156" style="fill:#cdcccc;"/><rect x="403.58" y="432.543" width="152.661" height="20.156" style="fill:#cdcccc;"/><rect x="620.226" y="432.543" width="152.661" height="20.156" style="fill:#cdcccc;"/><rect x="183.485" y="485.842" width="367.278" height="167.202" style="fill:#fedb7a;"/><rect x="180.712" y="672.525" width="280.632" height="11.497" style="fill:#cdcccc;"/><rect x="234.349" y="694.103" width="280.63" height="11.564" style="fill:#cdcccc;"/><rect x="188.964" y="717.166" width="280.632" height="11.565" style="fill:#cdcccc;"/><path d="M660.065,539.343l-22.794,13.8l-22.793,13.797l0,-27.597l0,-27.594l22.793,13.798l22.794,13.796Z" style="fill:#fff;"/><g><path d="M805.892,489.444l0,113.277c0,6.119 -5.177,11.057 -11.592,11.057l-201.886,0c-6.416,0 -11.622,-4.938 -11.622,-11.057l0,-113.277l225.1,0Z" style="fill:#1b093b;fill-rule:nonzero;"/><rect x="588.105" y="499.714" width="2.292" height="17.176" style="fill:#fff;fill-rule:nonzero;"/><path d="M600.342,501.058l-5.038,1.898l0,0.923l5.038,1.898l0,-0.89l-3.992,-1.47l3.992,-1.469l0,-0.89Z" style="fill:#fff;fill-rule:nonzero;"/><path d="M605.301,501.433c-0.912,0 -1.654,0.311 -2.103,0.858l0,-3.078l-1.08,0l0,7.958l1.08,0l0,-2.927c0,-1.235 0.742,-1.888 1.889,-1.888c1.023,0 1.608,0.546 1.608,1.663l0,3.152l1.08,0l0,-3.271c0,-1.674 -1.024,-2.467 -2.474,-2.467Z" style="fill:#fff;fill-rule:nonzero;"/><path d="M612.79,506.098c-0.225,0.172 -0.529,0.269 -0.843,0.269c-0.596,0 -0.935,-0.344 -0.935,-0.955l0,-3.078l1.71,0l0,-0.848l-1.71,0l0,-1.243l-1.079,0l0,1.243l-1.012,0l0,0.848l1.012,0l0,3.121c0,1.148 0.686,1.781 1.89,1.781c0.484,0 0.978,-0.128 1.305,-0.396l-0.338,-0.742Z" style="fill:#fff;fill-rule:nonzero;"/><path d="M621.887,501.433c-1.012,0 -1.843,0.408 -2.294,1.051c-0.393,-0.708 -1.158,-1.051 -2.068,-1.051c-0.9,0 -1.632,0.322 -2.058,0.901l0,-0.848l-1.036,0l0,5.685l1.08,0l0,-2.927c0,-1.235 0.709,-1.888 1.788,-1.888c0.979,0 1.541,0.546 1.541,1.663l0,3.152l1.08,0l0,-2.927c0,-1.235 0.707,-1.888 1.787,-1.888c0.98,0 1.541,0.546 1.541,1.663l0,3.152l1.079,0l0,-3.271c0,-1.674 -0.989,-2.467 -2.44,-2.467Z" style="fill:#fff;fill-rule:nonzero;"/><rect x="626.319" y="499.213" width="1.08" height="7.958" style="fill:#fff;fill-rule:nonzero;"/><path d="M629.186,501.058l0,0.89l4.003,1.469l-4.003,1.47l0,0.89l5.038,-1.898l0,-0.923l-5.038,-1.898Z" style="fill:#fff;fill-rule:nonzero;"/><path d="M612.444,513.928l-5.038,1.899l0,0.922l5.038,1.899l0,-0.891l-3.992,-1.47l3.992,-1.469l0,-0.89Z" style="fill:#faa746;fill-rule:nonzero;"/><path d="M617.404,514.303c-0.912,0 -1.655,0.311 -2.104,0.858l0,-3.078l-1.079,0l0,7.96l1.079,0l0,-2.93c0,-1.233 0.743,-1.887 1.889,-1.887c1.024,0 1.609,0.546 1.609,1.663l0,3.154l1.079,0l0,-3.273c0,-1.673 -1.023,-2.467 -2.473,-2.467Z" style="fill:#faa746;fill-rule:nonzero;"/><path d="M627.298,517.232c0,-1.748 -1.224,-2.929 -2.945,-2.929c-1.721,0 -2.992,1.213 -2.992,2.897c0,1.695 1.282,2.906 3.205,2.906c0.989,0 1.81,-0.322 2.35,-0.922l-0.596,-0.666c-0.438,0.462 -1.023,0.687 -1.721,0.687c-1.18,0 -2.024,-0.665 -2.159,-1.662l4.836,0c0.012,-0.096 0.022,-0.226 0.022,-0.311Zm-2.945,-2.06c1.045,0 1.799,0.675 1.911,1.63l-3.824,0c0.114,-0.965 0.877,-1.63 1.913,-1.63Z" style="fill:#faa746;fill-rule:nonzero;"/><path d="M630.797,514.304c-0.957,0 -1.844,0.257 -2.463,0.728l0.449,0.773c0.462,-0.376 1.181,-0.611 1.89,-0.611c1.068,0 1.597,0.503 1.597,1.373l0,0.203l-1.71,0c-1.777,0 -2.395,0.752 -2.395,1.663c0,0.986 0.854,1.673 2.204,1.673c0.933,0 1.597,-0.3 1.957,-0.815l0,0.752l1.024,0l0,-3.433c0,-1.556 -0.923,-2.306 -2.553,-2.306Zm-0.248,5.009c-0.821,0 -1.315,-0.355 -1.315,-0.923c0,-0.482 0.304,-0.88 1.371,-0.88l1.665,0l0,0.795c-0.271,0.653 -0.912,1.008 -1.721,1.008Z" style="fill:#faa746;fill-rule:nonzero;"/><path d="M639.927,512.083l0,3.133c-0.496,-0.612 -1.238,-0.912 -2.08,-0.912c-1.744,0 -3.015,1.158 -3.015,2.896c0,1.738 1.271,2.906 3.015,2.906c0.877,0 1.642,-0.322 2.124,-0.965l0,0.902l1.036,0l0,-7.96l-1.08,0Zm-1.991,7.122c-1.146,0 -2.013,-0.794 -2.013,-2.005c0,-1.213 0.867,-1.996 2.013,-1.996c1.135,0 2.002,0.783 2.002,1.996c0,1.211 -0.867,2.005 -2.002,2.005Z" style="fill:#faa746;fill-rule:nonzero;"/><path d="M642.783,513.928l0,0.891l4.003,1.47l-4.003,1.468l0,0.891l5.039,-1.899l0,-0.922l-5.039,-1.899Z" style="fill:#faa746;fill-rule:nonzero;"/><path d="M624.547,526.8l-5.039,1.9l0,0.921l5.039,1.9l0,-0.892l-3.992,-1.469l3.992,-1.47l0,-0.89Z" style="fill:#91d5e0;fill-rule:nonzero;"/><path d="M629.337,531.842c-0.226,0.172 -0.529,0.268 -0.844,0.268c-0.596,0 -0.933,-0.343 -0.933,-0.954l0,-3.079l1.709,0l0,-0.847l-1.709,0l0,-1.244l-1.08,0l0,1.244l-1.013,0l0,0.847l1.013,0l0,3.121c0,1.148 0.685,1.781 1.889,1.781c0.484,0 0.978,-0.129 1.305,-0.397l-0.337,-0.74Z" style="fill:#91d5e0;fill-rule:nonzero;"/><path d="M631.519,526.136c0.426,0 0.73,-0.3 0.73,-0.687c0,-0.365 -0.315,-0.655 -0.73,-0.655c-0.416,0 -0.732,0.302 -0.732,0.677c0,0.375 0.316,0.665 0.732,0.665Zm-0.54,6.778l1.079,0l0,-5.684l-1.079,0l0,5.684Z" style="fill:#91d5e0;fill-rule:nonzero;"/><path d="M637.13,531.842c-0.225,0.172 -0.528,0.268 -0.844,0.268c-0.596,0 -0.933,-0.343 -0.933,-0.954l0,-3.079l1.71,0l0,-0.847l-1.71,0l0,-1.244l-1.079,0l0,1.244l-1.012,0l0,0.847l1.012,0l0,3.121c0,1.148 0.686,1.781 1.89,1.781c0.482,0 0.978,-0.129 1.303,-0.397l-0.337,-0.74Z" style="fill:#91d5e0;fill-rule:nonzero;"/><rect x="638.772" y="524.956" width="1.08" height="7.958" style="fill:#91d5e0;fill-rule:nonzero;"/><path d="M647.297,530.104c0,-1.747 -1.226,-2.929 -2.947,-2.929c-1.721,0 -2.991,1.213 -2.991,2.898c0,1.694 1.282,2.906 3.206,2.906c0.988,0 1.809,-0.322 2.349,-0.923l-0.595,-0.665c-0.439,0.461 -1.024,0.686 -1.721,0.686c-1.181,0 -2.025,-0.665 -2.159,-1.661l4.835,0c0.011,-0.097 0.023,-0.226 0.023,-0.312Zm-2.947,-2.059c1.046,0 1.799,0.675 1.913,1.63l-3.824,0c0.112,-0.965 0.877,-1.63 1.911,-1.63Z" style="fill:#91d5e0;fill-rule:nonzero;"/><path d="M648.523,526.8l0,0.89l4.003,1.47l-4.003,1.469l0,0.892l5.038,-1.9l0,-0.921l-5.038,-1.9Z" style="fill:#91d5e0;fill-rule:nonzero;"/><path d="M655.595,532.979c0.405,0 0.742,-0.312 0.742,-0.74c0,-0.43 -0.337,-0.73 -0.742,-0.73c-0.416,0 -0.765,0.3 -0.765,0.73c0,0.428 0.349,0.74 0.765,0.74Z" style="fill:#91d5e0;fill-rule:nonzero;"/><path d="M658.149,532.979c0.404,0 0.742,-0.312 0.742,-0.74c0,-0.43 -0.338,-0.73 -0.742,-0.73c-0.416,0 -0.765,0.3 -0.765,0.73c0,0.428 0.349,0.74 0.765,0.74Z" style="fill:#91d5e0;fill-rule:nonzero;"/><path d="M660.701,532.979c0.405,0 0.743,-0.312 0.743,-0.74c0,-0.43 -0.338,-0.73 -0.743,-0.73c-0.416,0 -0.765,0.3 -0.765,0.73c0,0.428 0.349,0.74 0.765,0.74Z" style="fill:#91d5e0;fill-rule:nonzero;"/><path d="M667.764,526.8l-5.038,1.9l0,0.921l5.038,1.9l0,-0.892l-3.992,-1.469l3.992,-1.47l0,-0.89Z" style="fill:#91d5e0;fill-rule:nonzero;"/><path d="M668.202,533.987l0.979,0l3.71,-10.104l-0.978,0l-3.711,10.104Z" style="fill:#91d5e0;fill-rule:nonzero;"/><path d="M676.209,531.842c-0.226,0.172 -0.53,0.268 -0.844,0.268c-0.596,0 -0.933,-0.343 -0.933,-0.954l0,-3.079l1.709,0l0,-0.847l-1.709,0l0,-1.244l-1.08,0l0,1.244l-1.011,0l0,0.847l1.011,0l0,3.121c0,1.148 0.687,1.781 1.889,1.781c0.484,0 0.978,-0.129 1.305,-0.397l-0.337,-0.74Z" style="fill:#91d5e0;fill-rule:nonzero;"/><path d="M678.391,526.136c0.427,0 0.73,-0.3 0.73,-0.687c0,-0.365 -0.315,-0.655 -0.73,-0.655c-0.416,0 -0.732,0.302 -0.732,0.677c0,0.375 0.316,0.665 0.732,0.665Zm-0.54,6.778l1.079,0l0,-5.684l-1.079,0l0,5.684Z" style="fill:#91d5e0;fill-rule:nonzero;"/><path d="M684.002,531.842c-0.224,0.172 -0.528,0.268 -0.842,0.268c-0.598,0 -0.935,-0.343 -0.935,-0.954l0,-3.079l1.71,0l0,-0.847l-1.71,0l0,-1.244l-1.079,0l0,1.244l-1.012,0l0,0.847l1.012,0l0,3.121c0,1.148 0.686,1.781 1.89,1.781c0.483,0 0.978,-0.129 1.303,-0.397l-0.337,-0.74Z" style="fill:#91d5e0;fill-rule:nonzero;"/><rect x="685.644" y="524.956" width="1.08" height="7.958" style="fill:#91d5e0;fill-rule:nonzero;"/><path d="M694.169,530.104c0,-1.747 -1.226,-2.929 -2.947,-2.929c-1.721,0 -2.991,1.213 -2.991,2.898c0,1.694 1.282,2.906 3.206,2.906c0.988,0 1.809,-0.322 2.349,-0.923l-0.595,-0.665c-0.439,0.461 -1.024,0.686 -1.721,0.686c-1.181,0 -2.025,-0.665 -2.159,-1.661l4.835,0c0.012,-0.097 0.023,-0.226 0.023,-0.312Zm-2.947,-2.059c1.046,0 1.799,0.675 1.913,1.63l-3.824,0c0.111,-0.965 0.877,-1.63 1.911,-1.63Z" style="fill:#91d5e0;fill-rule:nonzero;"/><path d="M695.395,526.8l0,0.89l4.002,1.47l-4.002,1.469l0,0.892l5.038,-1.9l0,-0.921l-5.038,-1.9Z" style="fill:#91d5e0;fill-rule:nonzero;"/><path d="M600.342,552.542l-5.038,1.899l0,0.921l5.038,1.9l0,-0.892l-3.992,-1.469l3.992,-1.47l0,-0.889Z" style="fill:#fff;fill-rule:nonzero;"/><path d="M600.78,559.728l0.979,0l3.71,-10.104l-0.978,0l-3.711,10.104Z" style="fill:#fff;fill-rule:nonzero;"/><path d="M609.26,552.916c-0.912,0 -1.653,0.312 -2.103,0.859l0,-3.078l-1.08,0l0,7.958l1.08,0l0,-2.928c0,-1.233 0.742,-1.888 1.89,-1.888c1.022,0 1.607,0.547 1.607,1.663l0,3.153l1.079,0l0,-3.271c0,-1.673 -1.023,-2.468 -2.473,-2.468Z" style="fill:#fff;fill-rule:nonzero;"/><path d="M616.749,557.583c-0.225,0.172 -0.529,0.269 -0.844,0.269c-0.596,0 -0.933,-0.344 -0.933,-0.955l0,-3.079l1.709,0l0,-0.847l-1.709,0l0,-1.244l-1.079,0l0,1.244l-1.013,0l0,0.847l1.013,0l0,3.121c0,1.148 0.685,1.781 1.888,1.781c0.484,0 0.979,-0.129 1.305,-0.397l-0.337,-0.74Z" style="fill:#fff;fill-rule:nonzero;"/><path d="M625.847,552.916c-1.013,0 -1.845,0.409 -2.295,1.052c-0.393,-0.708 -1.159,-1.052 -2.069,-1.052c-0.899,0 -1.631,0.324 -2.058,0.902l0,-0.847l-1.034,0l0,5.684l1.08,0l0,-2.928c0,-1.233 0.707,-1.888 1.787,-1.888c0.978,0 1.541,0.547 1.541,1.663l0,3.153l1.079,0l0,-2.928c0,-1.233 0.709,-1.888 1.789,-1.888c0.978,0 1.541,0.547 1.541,1.663l0,3.153l1.079,0l0,-3.271c0,-1.673 -0.99,-2.468 -2.44,-2.468Z" style="fill:#fff;fill-rule:nonzero;"/><rect x="630.277" y="550.697" width="1.08" height="7.958" style="fill:#fff;fill-rule:nonzero;"/><path d="M633.146,552.542l0,0.889l4.002,1.47l-4.002,1.469l0,0.892l5.038,-1.9l0,-0.921l-5.038,-1.899Z" style="fill:#fff;fill-rule:nonzero;"/></g><path d="M805.112,483.077l0,6.588l-225.1,0l0,-6.588c0,-4.242 5.206,-7.685 11.621,-7.685l201.886,0c6.415,0 11.593,3.443 11.593,7.685Z" style="fill:#36c0c4;fill-rule:nonzero;"/><rect x="580.997" y="618.955" width="225.101" height="107.003" style="fill:#2fbb9d;"/><path d="M462.224,589.396l32.128,-12.31l0.947,-5.411l-27.867,-12.31l-0.947,5.546l21.306,9.469l-24.621,9.471l-0.946,5.545Zm-24.011,18.873l1.215,-6.9l-19.344,0l10.484,-60.874l-7.507,0l-11.77,67.774l26.922,0Zm-32.4,-54.518l-9.403,54.518l7.17,0l11.701,-67.774l-10.551,0l-20.088,54.109l-1.759,-54.109l-10.552,0l-11.768,67.774l6.56,0l9.403,-54.045l1.893,53.977l7.237,0l20.157,-54.45Zm-62.77,54.518l10.553,-60.942l12.445,0l1.218,-6.832l-32.467,0l-1.15,6.832l12.514,0l-10.552,60.942l7.439,0Zm-27.257,-30.508l-5.277,30.508l7.576,0l11.703,-67.774l-7.576,0l-5.277,30.504l-16.639,0l5.277,-30.504l-7.576,0l-11.703,67.774l7.577,0l5.275,-30.508l16.64,0Zm-48.023,6.09l-21.306,-9.471l24.552,-9.469l1.015,-5.546l-32.197,12.31l-0.946,5.411l27.934,12.31l0.948,-5.545Z" style="fill:#353f49;"/><path d="M743.869,685.104l25.162,-9.74l0.675,-4.33l-22.25,-9.669l-0.679,4.328l17.045,7.507l-19.277,7.508l-0.676,4.396Zm-39.567,-38.688l2.027,53.568l8.861,0l17.992,-53.568l-5.477,0l-15.626,46.602l-1.759,-46.602l-6.018,0Zm-10.622,0l-7.981,53.568l5.955,0l8.048,-53.568l-6.022,0Zm-31.518,48.159l6.424,-42.748l6.428,0c4.329,0 6.019,2.707 5.276,7.576l-4.128,27.596c-0.742,4.87 -3.178,7.576 -7.508,7.576l-6.492,0Zm1.217,-48.159l-7.981,53.568l12.513,0c8.388,0 12.987,-5.005 14.204,-13.255l3.99,-26.988c1.287,-8.251 -1.824,-13.325 -10.145,-13.325l-12.581,0Zm-23.065,34.292l-17.042,-7.508l19.275,-7.507l0.607,-4.328l-25.161,9.669l-0.607,4.33l22.253,9.74l0.675,-4.396Z" style="fill:#fff;"/></g></svg>