<?xml version="1.0" encoding="UTF-8" standalone="no"?><!DOCTYPE svg PUBLIC "-//W3C//DTD SVG 1.1//EN" "http://www.w3.org/Graphics/SVG/1.1/DTD/svg11.dtd"><svg width="100%" height="100%" viewBox="0 0 1013 637" version="1.1" xmlns="http://www.w3.org/2000/svg" xmlns:xlink="http://www.w3.org/1999/xlink" xml:space="preserve" xmlns:serif="http://www.serif.com/" style="fill-rule:evenodd;clip-rule:evenodd;stroke-linejoin:round;stroke-miterlimit:2;"><path d="M378.793,266.434c0,0 83,4 88,33c5,29 -97,3 -97,3l9,-36Z" style="fill:#a0616a;fill-rule:nonzero;"/><path d="M247.793,174.434c0,0 14,4 25,28c11,24 33,46 33,46l89,17l-15,45l-85,-11l-53,-30l6,-95Z" style="fill:#575a89;fill-rule:nonzero;"/><path d="M247.793,174.434c0,0 14,4 25,28c11,24 33,46 33,46l89,17l-15,45l-85,-11l-53,-30l6,-95Z" style="fill-opacity:0.1;fill-rule:nonzero;"/><rect x="512.75" y="102.845" width="305.273" height="0.343" style="fill:#3f3d56;"/><rect x="233.642" y="313.831" width="789" height="322.845" style="fill:#b8c1ec;"/><path d="M515.349,323.274l-72.684,0l-35.174,0l-10.945,0l-4.899,0c-18.555,0 -33.734,15.183 -33.734,33.734l0,237.725c0,18.555 15.183,33.734 33.734,33.734l168.187,0c18.555,0 33.734,-15.183 33.734,-33.734l0,-193.24c-26.069,-26.069 -52.142,-52.146 -78.219,-78.219Z" style="fill:#fefdef;fill-rule:nonzero;"/><path d="M559.834,632.334l-168.187,0c-20.73,0 -37.597,-16.867 -37.597,-37.597l0,-237.725c0,-20.734 16.867,-37.597 37.597,-37.597l123.706,0c1.027,0 2.008,0.405 2.731,1.132l78.219,78.223c0.726,0.726 1.132,1.707 1.132,2.731l0,193.24c0,20.726 -16.867,37.593 -37.601,37.593Zm-168.187,-305.197c-16.473,0 -29.87,13.402 -29.87,29.871l0,237.725c0,16.473 13.401,29.871 29.87,29.871l168.187,0c16.473,0 29.871,-13.402 29.871,-29.871l0,-191.637l-75.952,-75.959l-122.106,0Z" style="fill:#1f212b;fill-rule:nonzero;"/><path d="M514.375,325.206l0,42.441c0,19.154 15.673,34.824 34.824,34.824l46.304,0" style="fill:#fef6aa;fill-rule:nonzero;"/><path d="M595.503,404.402l-46.301,0c-20.266,0 -36.758,-16.488 -36.758,-36.759l0,-42.437c0,-1.067 0.865,-1.932 1.931,-1.932c1.066,0 1.932,0.865 1.932,1.932l0,42.437c0,18.138 14.754,32.896 32.895,32.896l46.301,0c1.067,0 1.932,0.865 1.932,1.932c0,1.066 -0.865,1.931 -1.932,1.931Zm-23.179,69.539c-1.066,0 -1.932,-0.866 -1.932,-1.932l0,-11.59c0,-1.066 0.866,-1.931 1.932,-1.931c1.066,0 1.932,0.865 1.932,1.931l0,11.59c0,1.066 -0.866,1.932 -1.932,1.932Zm0,30.906c-1.066,0 -1.932,-0.866 -1.932,-1.932l0,-23.179c0,-1.067 0.866,-1.932 1.932,-1.932c1.066,0 1.932,0.865 1.932,1.932l0,23.179c0,1.066 -0.866,1.932 -1.932,1.932Zm-27.653,104.308l-137.856,0c-16.315,0 -29.585,-13.329 -29.585,-29.705l0,-203.45c0,-9.496 4.609,-18.505 12.335,-24.099c5.061,-3.667 11.026,-5.606 17.25,-5.606c1.066,0 1.931,0.865 1.931,1.932c0,1.066 -0.865,1.931 -1.931,1.931c-5.401,0 -10.586,1.685 -14.986,4.872c-6.722,4.875 -10.736,12.714 -10.736,20.974l0,203.45c0,14.248 11.54,25.841 25.722,25.841l137.856,0c14.182,0 25.721,-11.593 25.721,-25.841l0,-68.812c0,-1.067 0.866,-1.932 1.932,-1.932c1.066,0 1.932,0.865 1.932,1.932l0,68.808c0,16.376 -13.275,29.705 -29.585,29.705Z" style="fill:#1f212b;fill-rule:nonzero;"/><path d="M402.511,604.098c-5.66,0 -10.215,-2.882 -12.177,-7.711c-3.272,-8.028 1.445,-19.069 12.942,-30.296c9.001,-8.793 21.572,-16.029 37.384,-21.53c8.411,-15.608 16.149,-32.32 21.577,-46.606c-12.019,-18.695 -14.236,-41.774 -10.033,-54.669c2.72,-8.341 7.429,-11.478 10.894,-12.641c4.837,-1.626 9.774,-0.409 13.216,3.292c5.189,5.578 7.089,16.813 5.818,34.344c-0.506,6.989 -2.827,16.373 -6.915,27.935c0.178,0.224 0.36,0.445 0.541,0.665c2.728,3.334 5.637,7 8.685,10.844c6.505,8.202 13.815,17.415 21.248,25.675c2.198,-0.069 4.315,-0.1 6.358,-0.1c26.263,0 43.899,5.493 49.659,15.468c2.457,4.254 2.507,9.04 0.143,13.135c-3.191,5.528 -10.095,8.828 -18.471,8.828l-0.003,0c-2.029,0 -4.126,-0.197 -6.232,-0.588c-10.554,-1.947 -22.14,-9.889 -36.33,-24.937c-3.627,0.197 -7.425,0.483 -11.319,0.862c-8.364,0.803 -24.505,2.909 -40.846,8.058c-7.031,12.699 -22.164,38.347 -33.448,45.722c-4.269,2.782 -8.65,4.25 -12.691,4.25Zm28.827,-43.207c-8.093,3.91 -14.773,8.422 -19.969,13.494c-10.21,9.975 -10.875,16.226 -10.303,17.628c0.166,0.406 0.881,0.491 1.445,0.491c1.731,0 4.045,-0.862 6.343,-2.36c5.046,-3.296 13.375,-14.233 22.484,-29.253Zm85.629,-15.928c8.747,8.109 16.087,12.64 22.276,13.784c1.414,0.259 2.805,0.394 4.126,0.394l0.004,0c4.589,0 7.591,-1.572 8.437,-3.033c0.155,-0.274 0.375,-0.645 -0.147,-1.545c-1.947,-3.365 -11.435,-8.909 -34.696,-9.6Zm-46.529,-36.218c-4.044,9.944 -8.97,20.691 -14.325,31.265c13.278,-3.288 25.316,-4.81 32.266,-5.478c0.904,-0.085 1.804,-0.17 2.697,-0.247c-5.528,-6.514 -10.844,-13.213 -15.716,-19.355c-1.684,-2.125 -3.33,-4.196 -4.922,-6.185Zm-3.09,-67.221c-0.085,0 -0.274,0.016 -0.564,0.112c-1.306,0.437 -2.639,2.399 -3.566,5.25c-2.782,8.531 -1.677,22.882 4.114,36.106c1.843,-6.266 2.944,-11.531 3.234,-15.541c1.414,-19.506 -1.742,-24.54 -2.747,-25.614c-0.282,-0.313 -0.386,-0.313 -0.471,-0.313Z" style="fill:#f37e98;fill-rule:nonzero;"/><path d="M402.511,606.029c-6.475,0 -11.694,-3.334 -13.962,-8.916c-3.589,-8.789 1.29,-20.603 13.378,-32.405c9.064,-8.851 21.639,-16.156 37.389,-21.723c8.105,-15.102 15.449,-30.953 20.773,-44.818c-11.992,-19.219 -13.997,-42.356 -9.72,-55.48c2.971,-9.106 8.229,-12.571 12.119,-13.873c5.571,-1.866 11.281,-0.456 15.244,3.805c5.571,5.992 7.646,17.706 6.332,35.801c-0.502,6.942 -2.743,16.16 -6.664,27.414c2.693,3.295 5.555,6.907 8.557,10.689c6.367,8.024 13.433,16.922 20.576,24.918c1.897,-0.05 3.736,-0.077 5.52,-0.077c26.977,0 45.208,5.838 51.328,16.434c2.812,4.868 2.862,10.358 0.142,15.067c-3.538,6.131 -11.068,9.793 -20.143,9.793c-2.155,0 -4.369,-0.208 -6.583,-0.618c-10.851,-2.001 -22.549,-9.905 -36.766,-24.86c-3.33,0.193 -6.799,0.46 -10.346,0.804c-8.012,0.769 -23.724,2.797 -39.722,7.75c-7.912,14.224 -22.453,38.373 -33.707,45.725c-4.582,2.994 -9.337,4.57 -13.745,4.57Zm64.775,-174.151c-1.178,0 -2.376,0.197 -3.574,0.599c-3.048,1.023 -7.201,3.832 -9.673,11.408c-3.956,12.142 -1.858,34.854 9.82,53.027c0.333,0.517 0.398,1.159 0.182,1.73c-5.486,14.43 -13.185,31.065 -21.681,46.838c-0.232,0.425 -0.61,0.75 -1.066,0.908c-15.542,5.409 -27.881,12.506 -36.666,21.09c-10.906,10.647 -15.465,20.919 -12.502,28.182c1.658,4.08 5.54,6.51 10.385,6.51c3.658,0 7.684,-1.364 11.64,-3.937c11.134,-7.274 26.652,-33.919 32.81,-45.038c0.24,-0.432 0.638,-0.757 1.109,-0.907c16.585,-5.227 32.958,-7.341 41.244,-8.136c3.921,-0.383 7.742,-0.669 11.397,-0.87c0.556,-0.019 1.124,0.19 1.514,0.603c13.908,14.75 25.115,22.492 35.276,24.365c9.936,1.847 19.127,-1.155 22.681,-7.305c2.012,-3.481 1.958,-7.564 -0.143,-11.203c-5.401,-9.353 -22.446,-14.503 -47.986,-14.503c-2.024,0 -4.118,0.031 -6.301,0.1c-0.587,0.058 -1.112,-0.216 -1.499,-0.637c-7.425,-8.252 -14.742,-17.473 -21.197,-25.609c-3.164,-3.991 -6.069,-7.65 -8.789,-10.976l-0.556,-0.684c-0.414,-0.521 -0.537,-1.217 -0.313,-1.846c4.025,-11.397 6.32,-20.622 6.811,-27.433c1.232,-16.972 -0.503,-27.727 -5.305,-32.892c-2.059,-2.218 -4.759,-3.384 -7.618,-3.384Zm-64.775,162.558c-2.102,0 -2.917,-0.92 -3.234,-1.692c-1,-2.461 0.139,-9.384 10.74,-19.742c5.324,-5.2 12.216,-9.859 20.479,-13.853c0.765,-0.375 1.692,-0.197 2.272,0.44c0.572,0.634 0.664,1.569 0.224,2.303c-9.438,15.565 -17.848,26.455 -23.079,29.866c-2.654,1.727 -5.277,2.678 -7.402,2.678Zm0.367,-3.091l0.038,0l-0.038,0Zm23.033,-25.397c-5.146,2.99 -9.57,6.278 -13.193,9.82c-7.7,7.522 -9.589,12.683 -9.848,14.743c1.534,-0.163 3.238,-0.885 4.93,-1.986c4.025,-2.627 10.624,-10.887 18.111,-22.577Zm117.462,-4.875c-1.434,0 -2.94,-0.143 -4.474,-0.425c-6.598,-1.221 -14.201,-5.888 -23.245,-14.267c-0.591,-0.549 -0.78,-1.403 -0.475,-2.148c0.305,-0.746 0.977,-1.194 1.846,-1.202c22.658,0.676 33.615,5.899 36.311,10.566c0.958,1.654 0.552,2.762 0.166,3.45c-1.429,2.457 -5.401,4.026 -10.129,4.026Zm-21.001,-13.912c6.637,5.548 12.417,8.8 17.222,9.689c1.306,0.24 2.573,0.359 3.775,0.359c3.624,0 5.783,-1.074 6.529,-1.781c-1.87,-2.669 -9.573,-7.027 -27.526,-8.267Zm27.707,8.549l0.043,0l-0.043,0Zm-93.966,-13.768c-0.579,0 -1.139,-0.263 -1.514,-0.727c-0.467,-0.591 -0.552,-1.402 -0.212,-2.078c5.331,-10.531 10.26,-21.29 14.259,-31.122c0.255,-0.634 0.834,-1.086 1.51,-1.182c0.711,-0.109 1.364,0.17 1.789,0.703l4.926,6.192c4.748,5.988 10.129,12.776 15.673,19.309c0.467,0.552 0.587,1.317 0.317,1.986c-0.275,0.668 -0.9,1.128 -1.623,1.19l-2.677,0.243c-7.491,0.722 -19.123,2.248 -31.984,5.432c-0.154,0.034 -0.309,0.054 -0.464,0.054Zm14.862,-29.427c-3.303,7.908 -7.154,16.315 -11.284,24.659c10.933,-2.476 20.722,-3.785 27.533,-4.473c-4.736,-5.679 -9.287,-11.424 -13.374,-16.577l-2.875,-3.609Zm-3.643,-27.591c-0.761,0 -1.46,-0.452 -1.769,-1.155c-5.625,-12.842 -7.305,-27.904 -4.184,-37.477c0.668,-2.044 2.171,-5.61 4.787,-6.487c1.541,-0.514 2.576,0.174 3.086,0.738c1.789,1.916 4.621,8.009 3.242,27.047c-0.302,4.133 -1.414,9.495 -3.307,15.947c-0.228,0.78 -0.92,1.333 -1.731,1.383c-0.039,0 -0.081,0.004 -0.124,0.004Zm-0.436,-41.035c-0.522,0.564 -1.225,1.699 -1.843,3.596c-2.059,6.324 -2.078,17.396 1.951,29.315c0.896,-3.701 1.445,-6.877 1.634,-9.489c1.151,-15.854 -0.765,-21.591 -1.742,-23.422Zm0.456,-2.291l0,-0.074l0,0.074Zm23.844,-64.238l-92.718,0c-1.067,0 -1.932,-0.866 -1.932,-1.932c0,-1.066 0.865,-1.932 1.932,-1.932l92.718,0c1.066,0 1.931,0.866 1.931,1.932c0,1.066 -0.865,1.932 -1.931,1.932Zm-42.496,11.589l-50.222,0c-1.067,0 -1.932,-0.865 -1.932,-1.931c0,-1.067 0.865,-1.932 1.932,-1.932l50.222,0c1.066,0 1.932,0.865 1.932,1.932c0,1.066 -0.866,1.931 -1.932,1.931Zm-42.496,11.59l-7.726,0c-1.067,0 -1.932,-0.865 -1.932,-1.932c0,-1.066 0.865,-1.931 1.932,-1.931l7.726,0c1.066,0 1.932,0.865 1.932,1.931c0,1.067 -0.866,1.932 -1.932,1.932Zm15.453,0l-7.726,0c-1.067,0 -1.932,-0.865 -1.932,-1.932c0,-1.066 0.865,-1.931 1.932,-1.931l7.726,0c1.066,0 1.932,0.865 1.932,1.931c0,1.067 -0.866,1.932 -1.932,1.932Zm15.453,0l-7.726,0c-1.067,0 -1.932,-0.865 -1.932,-1.932c0,-1.066 0.865,-1.931 1.932,-1.931l7.726,0c1.066,0 1.932,0.865 1.932,1.931c0,1.067 -0.866,1.932 -1.932,1.932Z" style="fill:#1f212b;fill-rule:nonzero;"/><path d="M115.793,128.434l9,57l62,3l-7,-84l-64,24Z" style="fill:#a0616a;fill-rule:nonzero;"/><path d="M50.497,510.576l-3,126l94,0l14,-50l11,50l98,0c0,0 2,-144 -9,-145c-11,-1 -205,19 -205,19Z" style="fill:#2f2e41;fill-rule:nonzero;"/><circle cx="135.793" cy="89.434" r="54" style="fill:#a0616a;"/><path d="M44.793,514.434l28,-138l-37,-183l85.214,-31.976l41.786,-5.024l21.007,-3.921l14.993,3.921c0,0 60,15 63,26c3,11 -12,101 -12,101l-14,74l31,133c0,0 -129,44 -220,24l-2,0Z" style="fill:#575a89;fill-rule:nonzero;"/><path d="M82.293,243.934l0,37l117.992,0.161l-111.992,-12.161l-6,-25Z" style="fill-opacity:0.1;fill-rule:nonzero;"/><path d="M72.159,346.12l148.134,-21.186l-148.134,41.956l0,-20.77Z" style="fill-opacity:0.1;fill-rule:nonzero;"/><path d="M307.293,248.934l-15.881,57.225l26.881,-55.337l-11,-1.888Z" style="fill-opacity:0.1;fill-rule:nonzero;"/><path d="M180.234,35.278l9.93,-3.976c0,0 -20.763,-22.858 -49.65,-20.87l8.124,-8.945c0,0 -19.86,-7.951 -37.914,12.92c-9.491,10.971 -20.473,23.868 -27.318,38.395l-10.635,0l4.439,9.773l-15.535,9.773l15.945,-1.756c-0.95,5.352 -1.096,10.816 -0.433,16.211c0.684,5.394 3.44,10.317 7.681,13.72c4.241,3.403 12.315,-25.491 12.315,-29.466l0,9.938c0,0 9.93,-8.944 9.93,-14.908l5.416,6.957l2.708,-10.932l33.401,10.932l-5.416,-8.944l20.763,2.981l-8.125,-10.932c0,0 23.471,12.92 24.374,23.852c0.903,10.933 7.773,21.292 7.773,21.292c0,0 18.406,-51.107 -7.773,-66.015Z" style="fill:#2f2e41;fill-rule:nonzero;"/><path d="M205.793,285.434c0,0 87,-13 100,6c13,19 -92,29 -92,29l-8,-35Z" style="fill:#a0616a;fill-rule:nonzero;"/><path d="M45.793,192.434l-6.266,0c-2.576,-0.007 -5.062,0.96 -6.956,2.707c-5.948,5.523 -18.524,19.775 -23.778,45.293c-7,34 -19,100 8,105c27,5 204,-19 204,-19l-13,-46l-128,1c0,0 2,-22 -2,-36c-4,-14 -32,-53 -32,-53Z" style="fill:#575a89;fill-rule:nonzero;"/><path d="M956.361,602.462l-200.109,0c-14.267,0 -25.94,-11.673 -25.94,-25.94l0,-200.109c0,-14.267 11.673,-25.94 25.94,-25.94l200.109,0c14.267,0 25.94,11.673 25.94,25.94l0,200.109c0,14.267 -11.673,25.94 -25.94,25.94Z" style="fill:#fefdef;fill-rule:nonzero;"/><path d="M956.361,606.167l-200.109,0c-16.346,0 -29.646,-13.299 -29.646,-29.645l0,-200.109c0,-16.346 13.3,-29.646 29.646,-29.646l200.109,0c16.346,0 29.646,13.3 29.646,29.646l0,200.109c0,16.346 -13.3,29.645 -29.646,29.645Zm-200.109,-251.989c-12.262,0 -22.234,9.973 -22.234,22.235l0,200.109c0,12.262 9.972,22.234 22.234,22.234l200.109,0c12.262,0 22.234,-9.972 22.234,-22.234l0,-200.109c0,-12.262 -9.972,-22.235 -22.234,-22.235l-200.109,0Z" style="fill:#1f212b;fill-rule:nonzero;"/><rect x="734.018" y="391.236" width="111.172" height="185.286" style="fill:#a3a3cd;fill-rule:nonzero;"/><path d="M932.274,391.236l-22.234,0c-1.023,0 -1.853,-0.83 -1.853,-1.853c0,-1.023 0.83,-1.853 1.853,-1.853l22.234,0c1.023,0 1.853,0.83 1.853,1.853c0,1.023 -0.83,1.853 -1.853,1.853Zm-33.352,0l-163.051,0c-1.023,0 -1.853,-0.83 -1.853,-1.853c0,-1.023 0.83,-1.853 1.853,-1.853l163.051,0c1.023,0 1.853,0.83 1.853,1.853c0,1.023 -0.83,1.853 -1.853,1.853Zm85.232,0l-33.351,0c-1.023,0 -1.853,-0.83 -1.853,-1.853c0,-1.023 0.83,-1.853 1.853,-1.853l33.351,0c1.023,0 1.853,0.83 1.853,1.853c0,1.023 -0.83,1.853 -1.853,1.853Zm-3.706,185.286l-203.814,0c-1.023,0 -1.853,-0.83 -1.853,-1.853c0,-1.023 0.83,-1.853 1.853,-1.853l203.814,0c1.023,0 1.853,0.83 1.853,1.853c0,1.023 -0.83,1.853 -1.853,1.853Zm-214.932,0l-33.351,0c-1.023,0 -1.853,-0.83 -1.853,-1.853c0,-1.023 0.83,-1.853 1.853,-1.853l33.351,0c1.023,0 1.853,0.83 1.853,1.853c0,1.023 -0.83,1.853 -1.853,1.853Z" style="fill:#1f212b;fill-rule:nonzero;"/><path d="M761.811,363.443c-4.066,0 -7.412,3.345 -7.412,7.411c0,4.066 3.346,7.412 7.412,7.412c4.066,0 7.411,-3.346 7.411,-7.412c0,-4.066 -3.345,-7.411 -7.411,-7.411Z" style="fill:#ef5390;fill-rule:nonzero;"/><path d="M761.811,380.118c-5.11,0 -9.265,-4.154 -9.265,-9.264c0,-5.11 4.155,-9.264 9.265,-9.264c5.11,0 9.264,4.154 9.264,9.264c0,5.11 -4.154,9.264 -9.264,9.264Zm0,-14.822c-3.065,0 -5.559,2.494 -5.559,5.558c0,3.065 2.494,5.559 5.559,5.559c3.064,0 5.558,-2.494 5.558,-5.559c0,-3.064 -2.494,-5.558 -5.558,-5.558Z" style="fill:#1f212b;fill-rule:nonzero;"/><path d="M787.751,363.443c-4.066,0 -7.412,3.345 -7.412,7.411c0,4.066 3.346,7.412 7.412,7.412c4.066,0 7.411,-3.346 7.411,-7.412c0,-4.066 -3.345,-7.411 -7.411,-7.411Z" style="fill:#f9e65c;fill-rule:nonzero;"/><path d="M787.751,380.118c-5.11,0 -9.264,-4.154 -9.264,-9.264c0,-5.11 4.154,-9.264 9.264,-9.264c5.11,0 9.264,4.154 9.264,9.264c0,5.11 -4.154,9.264 -9.264,9.264Zm0,-14.822c-3.065,0 -5.559,2.494 -5.559,5.558c0,3.065 2.494,5.559 5.559,5.559c3.064,0 5.558,-2.494 5.558,-5.559c0,-3.064 -2.494,-5.558 -5.558,-5.558Z" style="fill:#1f212b;fill-rule:nonzero;"/><path d="M813.691,363.443c-4.066,0 -7.412,3.345 -7.412,7.411c0,4.066 3.346,7.412 7.412,7.412c4.066,0 7.411,-3.346 7.411,-7.412c0,-4.066 -3.345,-7.411 -7.411,-7.411Z" style="fill:#60be92;fill-rule:nonzero;"/><path d="M813.691,380.118c-5.11,0 -9.264,-4.154 -9.264,-9.264c0,-5.11 4.154,-9.264 9.264,-9.264c5.11,0 9.264,4.154 9.264,9.264c0,5.11 -4.154,9.264 -9.264,9.264Zm0,-14.822c-3.065,0 -5.559,2.494 -5.559,5.558c0,3.065 2.494,5.559 5.559,5.559c3.064,0 5.558,-2.494 5.558,-5.559c0,-3.064 -2.494,-5.558 -5.558,-5.558Zm-59.292,200.109c-1.022,0 -1.853,-0.831 -1.853,-1.853l0,-163.052c0,-1.023 0.831,-1.853 1.853,-1.853c1.023,0 1.853,0.83 1.853,1.853l0,163.052c0,1.022 -0.83,1.853 -1.853,1.853Zm-11.117,-155.641c-1.012,0 -1.842,-0.815 -1.853,-1.83c-0.011,-1.023 0.808,-1.864 1.831,-1.875l3.706,-0.045l0.022,0c1.012,0 1.842,0.815 1.853,1.831c0.011,1.022 -0.808,1.864 -1.831,1.875l-3.706,0.044l-0.022,0Zm0,11.117c-1.012,0 -1.842,-0.815 -1.853,-1.83c-0.011,-1.023 0.808,-1.864 1.831,-1.875l3.706,-0.045c1.097,-0.111 1.86,0.808 1.875,1.831c0.011,1.023 -0.808,1.864 -1.831,1.875l-3.706,0.044l-0.022,0Zm0,11.118c-1.012,0 -1.842,-0.816 -1.853,-1.831c-0.011,-1.023 0.808,-1.864 1.831,-1.875l3.706,-0.045c1.097,-0.003 1.86,0.805 1.875,1.831c0.011,1.023 -0.808,1.864 -1.831,1.875l-3.706,0.045l-0.022,0Zm0,11.117c-1.012,0 -1.842,-0.816 -1.853,-1.831c-0.011,-1.023 0.808,-1.864 1.831,-1.875l3.706,-0.044c1.097,0.103 1.86,0.807 1.875,1.83c0.011,1.023 -0.808,1.864 -1.831,1.875l-3.706,0.045l-0.022,0Zm0,11.117c-1.012,0 -1.842,-0.815 -1.853,-1.831c-0.011,-1.022 0.808,-1.864 1.831,-1.875l3.706,-0.044l0.022,0c1.012,0 1.842,0.815 1.853,1.83c0.011,1.023 -0.808,1.864 -1.831,1.875l-3.706,0.045l-0.022,0Zm0,11.117c-1.012,0 -1.842,-0.819 -1.853,-1.834c-0.011,-1.019 0.812,-1.861 1.835,-1.872l3.705,-0.04l0.019,0c1.012,0 1.842,0.819 1.853,1.834c0.011,1.019 -0.812,1.86 -1.835,1.871l-3.705,0.041l-0.019,0Zm0,11.117c-1.012,0 -1.842,-0.819 -1.853,-1.834c-0.011,-1.019 0.812,-1.86 1.835,-1.871l3.705,-0.041l0.019,0c1.012,0 1.842,0.819 1.853,1.834c0.011,1.019 -0.812,1.86 -1.835,1.871l-3.705,0.041l-0.019,0Zm0,11.117c-1.012,0 -1.842,-0.819 -1.853,-1.834c-0.011,-1.019 0.812,-1.86 1.835,-1.871l3.705,-0.041l0.019,0c1.012,0 1.842,0.819 1.853,1.834c0.011,1.019 -0.812,1.861 -1.835,1.872l-3.705,0.04l-0.019,0Zm0,11.118c-1.012,0 -1.842,-0.819 -1.853,-1.835c-0.011,-1.019 0.812,-1.86 1.835,-1.871l3.705,-0.041l0.019,0c1.012,0 1.842,0.819 1.853,1.834c0.011,1.019 -0.812,1.861 -1.835,1.872l-3.705,0.041l-0.019,0Zm0,11.117c-1.012,0 -1.842,-0.819 -1.853,-1.835c-0.011,-1.019 0.812,-1.86 1.835,-1.871l3.705,-0.041l0.019,0c1.012,0 1.842,0.819 1.853,1.835c0.011,1.019 -0.812,1.86 -1.835,1.871l-3.705,0.041l-0.019,0Zm0,11.117c-1.012,0 -1.842,-0.819 -1.853,-1.834c-0.011,-1.02 0.812,-1.861 1.835,-1.872l3.705,-0.041l0.019,0c1.012,0 1.842,0.819 1.853,1.835c0.011,1.019 -0.812,1.86 -1.835,1.871l-3.705,0.041l-0.019,0Zm0,11.117c-1.012,0 -1.842,-0.819 -1.853,-1.834c-0.011,-1.019 0.812,-1.861 1.835,-1.872l3.705,-0.04l0.019,0c1.012,0 1.842,0.819 1.853,1.834c0.011,1.019 -0.812,1.86 -1.835,1.871l-3.705,0.041l-0.019,0Zm0,11.117c-1.012,0 -1.842,-0.819 -1.853,-1.834c-0.011,-1.019 0.812,-1.86 1.835,-1.871l3.705,-0.041l0.019,0c1.012,0 1.842,0.819 1.853,1.834c0.011,1.019 -0.812,1.86 -1.835,1.871l-3.705,0.041l-0.019,0Zm0,11.117c-1.012,0 -1.842,-0.819 -1.853,-1.834c-0.011,-1.019 0.812,-1.86 1.835,-1.871l3.705,-0.041l0.019,0c1.012,0 1.842,0.819 1.853,1.834c0.011,1.019 -0.812,1.861 -1.835,1.872l-3.705,0.04l-0.019,0Zm103.76,7.412c-1.022,0 -1.853,-0.83 -1.853,-1.853l0,-159.346c0,-1.023 0.831,-1.853 1.853,-1.853c1.023,0 1.853,0.83 1.853,1.853l0,159.346c0,1.023 -0.83,1.853 -1.853,1.853Z" style="fill:#1f212b;fill-rule:nonzero;"/><rect x="861.862" y="426.44" width="70.409" height="44.469" style="fill:#fef6aa;fill-rule:nonzero;"/><path d="M932.274,472.762l-70.409,0c-1.023,0 -1.853,-0.831 -1.853,-1.853l0,-44.469c0,-1.023 0.83,-1.853 1.853,-1.853l70.409,0c1.023,0 1.853,0.83 1.853,1.853l0,44.469c0,1.022 -0.83,1.853 -1.853,1.853Zm-68.556,-3.706l66.703,0l0,-40.763l-66.703,0l0,40.763Z" style="fill:#1f212b;fill-rule:nonzero;"/><path d="M863.922,470.553c-0.619,0 -1.227,-0.315 -1.579,-0.882c-0.537,-0.871 -0.263,-2.012 0.608,-2.55l65.791,-40.481c0.856,-0.541 2.005,-0.267 2.55,0.608c0.537,0.871 0.263,2.012 -0.608,2.549l-65.791,40.482c-0.3,0.189 -0.638,0.274 -0.971,0.274Zm66.688,0.663c-0.293,0 -0.589,-0.07 -0.867,-0.218l-25.859,-13.719c-0.904,-0.478 -1.248,-1.601 -0.767,-2.505c0.482,-0.901 1.597,-1.253 2.505,-0.767l25.859,13.718c0.904,0.478 1.249,1.601 0.767,2.506c-0.337,0.626 -0.978,0.985 -1.638,0.985Z" style="fill:#1f212b;fill-rule:nonzero;"/><path d="M895.224,451.417c-0.363,0 -0.726,-0.104 -1.045,-0.323l-32.432,-22.182c-0.845,-0.578 -1.06,-1.735 -0.486,-2.576c0.586,-0.845 1.746,-1.052 2.576,-0.485l32.432,22.182c0.845,0.578 1.06,1.735 0.486,2.576c-0.364,0.526 -0.942,0.808 -1.531,0.808Z" style="fill:#1f212b;fill-rule:nonzero;"/><rect x="895.213" y="496.849" width="70.409" height="44.469" style="fill:#fef6aa;fill-rule:nonzero;"/><path d="M965.625,543.17l-70.408,0c-1.023,0 -1.853,-0.83 -1.853,-1.853l0,-44.468c0,-1.023 0.83,-1.853 1.853,-1.853l70.408,0c1.023,0 1.853,0.83 1.853,1.853l0,44.468c0,1.023 -0.83,1.853 -1.853,1.853Zm-68.555,-3.705l66.703,0l0,-40.763l-66.703,0l0,40.763Z" style="fill:#1f212b;fill-rule:nonzero;"/><path d="M897.07,539.235l65.995,-39.348" style="fill:none;fill-rule:nonzero;"/><path d="M897.07,541.084c-0.63,0 -1.246,-0.322 -1.594,-0.904c-0.526,-0.879 -0.233,-2.016 0.645,-2.542l65.999,-39.344c0.867,-0.523 2.012,-0.241 2.542,0.645c0.526,0.878 0.233,2.016 -0.645,2.542l-65.999,39.344c-0.296,0.177 -0.622,0.259 -0.948,0.259Z" style="fill:#1f212b;fill-rule:nonzero;"/><path d="M938.103,526.457l27.519,13.7" style="fill:none;fill-rule:nonzero;"/><path d="M965.625,542.01c-0.277,0 -0.559,-0.063 -0.826,-0.196l-27.522,-13.7c-0.916,-0.456 -1.29,-1.568 -0.834,-2.483c0.452,-0.919 1.575,-1.297 2.483,-0.834l27.522,13.7c0.915,0.456 1.29,1.568 0.834,2.483c-0.323,0.656 -0.978,1.03 -1.657,1.03Z" style="fill:#1f212b;fill-rule:nonzero;"/><path d="M895.224,499.072l33.348,21.493" style="fill:none;fill-rule:nonzero;"/><path d="M928.576,522.418c-0.345,0 -0.697,-0.092 -1.005,-0.296l-33.351,-21.493c-0.86,-0.553 -1.112,-1.701 -0.552,-2.557c0.552,-0.86 1.708,-1.112 2.557,-0.553l33.351,21.494c0.86,0.552 1.112,1.701 0.552,2.557c-0.352,0.548 -0.945,0.848 -1.552,0.848Z" style="fill:#1f212b;fill-rule:nonzero;"/><path d="M884.1,498.702l-22.235,0c-1.023,0 -1.853,-0.831 -1.853,-1.853c0,-1.023 0.83,-1.853 1.853,-1.853l22.235,0c1.022,0 1.852,0.83 1.852,1.853c0,1.022 -0.83,1.853 -1.852,1.853Zm0,11.117l-22.235,0c-1.023,0 -1.853,-0.83 -1.853,-1.853c0,-1.023 0.83,-1.853 1.853,-1.853l22.235,0c1.022,0 1.852,0.83 1.852,1.853c0,1.023 -0.83,1.853 -1.852,1.853Zm0,11.117l-22.235,0c-1.023,0 -1.853,-0.83 -1.853,-1.853c0,-1.023 0.83,-1.853 1.853,-1.853l22.235,0c1.022,0 1.852,0.83 1.852,1.853c0,1.023 -0.83,1.853 -1.852,1.853Zm0,11.117l-22.235,0c-1.023,0 -1.853,-0.83 -1.853,-1.853c0,-1.023 0.83,-1.853 1.853,-1.853l22.235,0c1.022,0 1.852,0.83 1.852,1.853c0,1.023 -0.83,1.853 -1.852,1.853Zm-0.004,11.117l-22.234,0c-1.023,0 -1.853,-0.83 -1.853,-1.853c0,-1.022 0.83,-1.852 1.853,-1.852l22.234,0c1.023,0 1.853,0.83 1.853,1.852c0,1.023 -0.83,1.853 -1.853,1.853Z" style="fill:#1f212b;fill-rule:nonzero;"/><path d="M961.92,428.293l-22.235,0c-1.022,0 -1.852,-0.83 -1.852,-1.853c0,-1.023 0.83,-1.853 1.852,-1.853l22.235,0c1.022,0 1.853,0.83 1.853,1.853c0,1.023 -0.831,1.853 -1.853,1.853Zm0,11.117l-22.235,0c-1.022,0 -1.852,-0.83 -1.852,-1.853c0,-1.023 0.83,-1.853 1.852,-1.853l22.235,0c1.022,0 1.853,0.83 1.853,1.853c0,1.023 -0.831,1.853 -1.853,1.853Zm0,11.117l-22.235,0c-1.022,0 -1.852,-0.83 -1.852,-1.853c0,-1.022 0.83,-1.853 1.852,-1.853l22.235,0c1.022,0 1.853,0.831 1.853,1.853c0,1.023 -0.831,1.853 -1.853,1.853Zm0,11.117l-22.235,0c-1.022,0 -1.852,-0.83 -1.852,-1.852c0,-1.023 0.83,-1.853 1.852,-1.853l22.235,0c1.022,0 1.853,0.83 1.853,1.853c0,1.022 -0.831,1.852 -1.853,1.852Zm0.003,11.118l-22.234,0c-1.023,0 -1.853,-0.831 -1.853,-1.853c0,-1.023 0.83,-1.853 1.853,-1.853l22.234,0c1.023,0 1.853,0.83 1.853,1.853c0,1.022 -0.83,1.853 -1.853,1.853Z" style="fill:#1f212b;fill-rule:nonzero;"/><path d="M780.373,437.187c0.133,0.292 0.248,0.57 0.344,0.833c0.097,0.263 0.141,0.527 0.141,0.79c0,0.556 -0.178,1.022 -0.53,1.4c-0.355,0.378 -0.815,0.564 -1.386,0.564c-0.381,0 -0.748,-0.082 -1.1,-0.245c-0.627,-0.526 -1.301,-1.123 -2.02,-1.793c-0.719,-0.671 -1.464,-1.349 -2.223,-2.039c-0.953,-0.852 -1.924,-1.719 -2.917,-2.605c-0.993,-0.882 -1.871,-1.652 -2.631,-2.308c-0.463,-0.556 -0.693,-1.097 -0.693,-1.623c0,-0.69 0.312,-1.312 0.938,-1.868l-0.041,0c0.107,-0.096 0.408,-0.378 0.897,-0.838c0.489,-0.459 1.06,-1 1.712,-1.623c0.652,-0.622 1.352,-1.286 2.097,-1.99c0.749,-0.7 1.449,-1.367 2.098,-1.99c0.656,-0.622 1.215,-1.156 1.693,-1.597c0.475,-0.441 0.782,-0.711 0.916,-0.811c0.437,-0.197 0.8,-0.297 1.1,-0.297c0.571,0 1.034,0.2 1.386,0.589c0.352,0.393 0.53,0.868 0.53,1.427c0,0.656 -0.163,1.197 -0.489,1.623c-0.463,0.46 -1.06,1.03 -1.794,1.72c-0.737,0.693 -1.482,1.378 -2.242,2.067c-0.704,0.656 -1.4,1.305 -2.079,1.939c-0.681,0.641 -1.237,1.171 -1.671,1.597l7.867,7.026l0.097,0.052Zm29.886,-28.364c0.515,-0.915 1.142,-1.375 1.875,-1.375c0.516,0 0.964,0.197 1.346,0.589c0.381,0.393 0.57,0.919 0.57,1.575c0,0.293 -0.04,0.556 -0.118,0.786l-7.79,21.816c-0.704,1.967 -1.426,3.965 -2.16,5.995c-0.738,2.031 -1.456,4.029 -2.161,5.993c-0.274,0.459 -0.578,0.778 -0.915,0.959c-0.341,0.182 -0.659,0.271 -0.96,0.271c-0.515,0 -0.959,-0.189 -1.323,-0.563c-0.366,-0.378 -0.548,-0.927 -0.548,-1.646c0,-0.263 0.011,-0.474 0.041,-0.641l7.748,-21.567c0.708,-1.998 1.442,-4.039 2.202,-6.118c0.752,-2.087 1.486,-4.11 2.193,-6.074Zm15.82,21.286l-3.713,-3.536c-0.734,-0.689 -1.475,-1.386 -2.223,-2.086c-0.749,-0.704 -1.338,-1.286 -1.772,-1.745c-0.356,-0.46 -0.53,-0.986 -0.53,-1.575c0,-0.556 0.182,-1.03 0.552,-1.427c0.367,-0.389 0.819,-0.589 1.364,-0.589c0.3,0 0.656,0.081 1.06,0.244c0.167,0.1 0.56,0.445 1.182,1.031c0.626,0.589 1.345,1.263 2.161,2.016c0.815,0.756 1.652,1.549 2.508,2.386c0.856,0.838 1.597,1.545 2.224,2.135l1.426,1.326l-0.04,0c0.596,0.589 0.893,1.212 0.893,1.868c0,0.526 -0.204,1.049 -0.612,1.571l-4.813,4.325l-5.014,4.421c-0.382,0.2 -0.76,0.296 -1.142,0.296c-0.544,0 -1,-0.189 -1.367,-0.563c-0.367,-0.378 -0.548,-0.845 -0.548,-1.401c0,-0.493 0.163,-1.015 0.489,-1.575l7.915,-7.122Z" style="fill:#1f212b;fill-rule:nonzero;"/><path d="M282.72,-0.072c-0.605,0 -1.104,0.498 -1.104,1.103c0,0.606 0.499,1.104 1.104,1.104c0.605,0 1.104,-0.498 1.104,-1.104c0,-0.605 -0.499,-1.103 -1.104,-1.103Z" style="fill:#f1bc19;fill-rule:nonzero;"/><path d="M252.922,1.031c-22.401,0 -40.834,18.433 -40.834,40.835c0,22.401 18.433,40.834 40.834,40.834c22.401,0 40.834,-18.433 40.834,-40.834c0,-22.402 -18.433,-40.835 -40.834,-40.835Z" style="fill:#e6edb7;fill-rule:nonzero;"/><path d="M289.342,-1.176c-2.422,0 -4.415,1.993 -4.415,4.414c0,2.422 1.993,4.415 4.415,4.415c2.422,0 4.414,-1.993 4.414,-4.415c0,-2.421 -1.992,-4.414 -4.414,-4.414Z" style="fill:#f1bc19;fill-rule:nonzero;"/><path d="M293.756,10.964c-1.211,0 -2.207,0.996 -2.207,2.207c0,1.211 0.996,2.207 2.207,2.207c1.211,0 2.208,-0.996 2.208,-2.207c0,-1.211 -0.997,-2.207 -2.208,-2.207Z" style="fill:#88ae45;fill-rule:nonzero;"/><path d="M287.135,68.353c-1.211,0 -2.208,0.996 -2.208,2.207c0,1.211 0.997,2.207 2.208,2.207c1.21,0 2.207,-0.996 2.207,-2.207c0,-1.211 -0.997,-2.207 -2.207,-2.207Zm-72.84,-16.555c-2.422,0 -4.415,1.993 -4.415,4.415c0,2.421 1.993,4.414 4.415,4.414c2.422,0 4.414,-1.993 4.414,-4.414c0,-2.422 -1.992,-4.415 -4.414,-4.415Z" style="fill:#fbcd59;fill-rule:nonzero;"/><path d="M225.331,80.493c-1.211,0 -2.207,0.996 -2.207,2.207c0,1.211 0.996,2.207 2.207,2.207c1.211,0 2.207,-0.996 2.207,-2.207c0,-1.211 -0.996,-2.207 -2.207,-2.207Z" style="fill:#88ae45;fill-rule:nonzero;"/><path d="M218.158,40.762c-1.514,0 -2.759,1.245 -2.759,2.759c0,1.514 1.245,2.759 2.759,2.759c1.513,0 2.759,-1.245 2.759,-2.759c0,-1.514 -1.246,-2.759 -2.759,-2.759Zm67.321,-18.762c-0.908,0 -1.655,0.747 -1.655,1.656c0,0.908 0.747,1.655 1.655,1.655c0.908,0 1.656,-0.747 1.656,-1.655c0,-0.909 -0.748,-1.656 -1.656,-1.656Z" style="fill:#fff;fill-rule:nonzero;"/><g><path d="M222.02,37.671c-0.005,7.015 4.334,13.652 11.795,18.036c0,3.796 -1.11,7.997 -2.495,10.668c-0.493,0.949 0.282,2.039 1.346,1.924c6.886,-0.755 13.409,-4.148 16.877,-7.542l3.931,0c17.371,0 31.453,-10.336 31.453,-23.086c0,-12.751 -14.082,-23.088 -31.453,-23.088c-17.371,0 -31.454,10.336 -31.454,23.088" style="fill:#fefdef;fill-rule:nonzero;"/><path d="M232.514,69.079c-0.699,0 -1.354,-0.34 -1.753,-0.921c-0.44,-0.644 -0.489,-1.444 -0.127,-2.138c1.38,-2.66 2.326,-6.573 2.404,-9.877c-7.506,-4.55 -11.797,-11.261 -11.79,-18.475c0,-13.155 14.456,-23.858 32.226,-23.858c17.769,0 32.226,10.703 32.226,23.86c0,13.156 -14.458,23.86 -32.226,23.86l-3.621,0c-3.424,3.225 -9.949,6.751 -17.104,7.537c-0.079,0.009 -0.157,0.012 -0.235,0.012Zm20.96,-53.724c-16.918,0 -30.681,10.01 -30.681,22.315l0,0.001c-0.006,6.773 4.154,13.104 11.414,17.37c0.236,0.139 0.381,0.391 0.381,0.666c0,3.673 -1.013,7.999 -2.582,11.023c-0.137,0.262 -0.023,0.476 0.031,0.555c0.121,0.177 0.327,0.277 0.545,0.245c6.951,-0.761 13.256,-4.228 16.42,-7.324c0.144,-0.142 0.339,-0.221 0.541,-0.221l3.931,0c16.917,0 30.681,-10.01 30.681,-22.315c0,-12.304 -13.764,-22.315 -30.681,-22.315Z" style="fill:#472b29;fill-rule:nonzero;"/></g><path d="M234.273,52.064c-0.054,0 -0.109,-0.016 -0.158,-0.05c-5.398,-3.739 -8.37,-8.754 -8.37,-14.118c0,-8.196 7.25,-15.621 18.041,-18.476c0.15,-0.042 0.298,0.048 0.338,0.196c0.038,0.147 -0.049,0.298 -0.197,0.337c-10.545,2.791 -17.63,10.002 -17.63,17.944c0,5.178 2.888,10.032 8.134,13.666c0.124,0.086 0.156,0.258 0.069,0.384c-0.054,0.076 -0.14,0.117 -0.227,0.117Z" style="fill:#472b29;fill-rule:nonzero;"/><path d="M236.597,63.8c-0.075,0 -0.148,-0.03 -0.201,-0.087c-0.075,-0.079 -0.096,-0.196 -0.053,-0.297c1.341,-3.166 1.404,-5.572 1.499,-9.215l0.276,-0.012l0.276,0.007c-0.092,3.5 -0.154,5.873 -1.308,8.854c3.629,-1.384 6.362,-3.471 8.803,-6.703c0.062,-0.084 0.167,-0.121 0.273,-0.104c1.156,0.224 1.499,0.268 2.739,0.39c0.153,0.016 0.263,0.15 0.249,0.301c-0.016,0.153 -0.154,0.263 -0.302,0.249c-1.199,-0.118 -1.574,-0.165 -2.622,-0.366c-2.612,3.415 -5.56,5.567 -9.537,6.967c-0.03,0.011 -0.061,0.016 -0.092,0.016Z" style="fill:#472b29;fill-rule:nonzero;"/><path d="M253.454,57.604c-0.152,0 -0.276,-0.123 -0.276,-0.276c0,-0.152 0.124,-0.275 0.276,-0.275c7.845,0 15.305,-2.396 20.47,-6.573c0.116,-0.093 0.291,-0.079 0.389,0.041c0.096,0.118 0.077,0.293 -0.041,0.389c-5.261,4.254 -12.849,6.694 -20.818,6.694Z" style="fill:#472b29;fill-rule:nonzero;"/><path d="M277.036,48.108c-0.063,0 -0.125,-0.022 -0.177,-0.065c-0.116,-0.099 -0.132,-0.273 -0.033,-0.39c2.477,-2.945 3.787,-6.319 3.787,-9.758c0,-4.396 -2.056,-8.531 -5.947,-11.959c-0.115,-0.101 -0.126,-0.275 -0.025,-0.39c0.1,-0.115 0.277,-0.126 0.39,-0.024c3.957,3.484 6.135,7.879 6.135,12.373c0,3.57 -1.355,7.067 -3.917,10.113c-0.057,0.067 -0.134,0.1 -0.213,0.1Z" style="fill:#472b29;fill-rule:nonzero;"/><path d="M270.905,23.177c-0.048,0 -0.096,-0.013 -0.14,-0.038c-1.04,-0.609 -2.155,-1.166 -3.312,-1.659c-0.14,-0.06 -0.206,-0.221 -0.146,-0.362c0.06,-0.142 0.225,-0.203 0.362,-0.146c1.178,0.502 2.314,1.071 3.375,1.69c0.131,0.076 0.175,0.246 0.099,0.378c-0.052,0.088 -0.144,0.137 -0.238,0.137Z" style="fill:#472b29;fill-rule:nonzero;"/><path d="M265.576,20.735c-0.03,0 -0.06,-0.005 -0.09,-0.015c-3.76,-1.313 -7.808,-1.98 -12.031,-1.98c-1.183,0 -2.376,0.055 -3.548,0.162c-0.155,0.027 -0.286,-0.098 -0.3,-0.25c-0.015,-0.151 0.097,-0.286 0.249,-0.299c1.189,-0.11 2.399,-0.165 3.599,-0.165c4.285,0 8.393,0.677 12.212,2.01c0.144,0.051 0.219,0.207 0.17,0.351c-0.04,0.115 -0.147,0.186 -0.261,0.186Z" style="fill:#472b29;fill-rule:nonzero;"/><g><path d="M244.581,30.504c0.014,-1.2 0.247,-2.273 0.698,-3.219c0.452,-0.945 1.066,-1.747 1.842,-2.402c0.776,-0.657 1.69,-1.158 2.742,-1.503c1.051,-0.346 2.19,-0.519 3.419,-0.519c1.355,0 2.558,0.187 3.61,0.561c1.052,0.37 1.937,0.907 2.656,1.602c0.72,0.695 1.267,1.542 1.641,2.534c0.374,0.992 0.562,2.099 0.562,3.324c0,0.96 -0.148,1.853 -0.445,2.685c-0.297,0.834 -0.695,1.627 -1.196,2.379c-0.501,0.755 -1.069,1.467 -1.704,2.138c-0.635,0.67 -1.291,1.324 -1.969,1.955c-0.776,0.72 -1.299,1.532 -1.567,2.435c-0.268,0.902 -0.402,1.874 -0.402,2.918l-3.917,0c0.015,-1.017 0.085,-1.881 0.212,-2.601c0.127,-0.719 0.332,-1.376 0.614,-1.968c0.282,-0.59 0.652,-1.165 1.111,-1.722c0.459,-0.557 1.027,-1.182 1.704,-1.874c0.48,-0.494 0.943,-0.964 1.388,-1.404c0.444,-0.445 0.833,-0.903 1.164,-1.376c0.331,-0.474 0.596,-0.985 0.793,-1.535c0.198,-0.551 0.297,-1.182 0.297,-1.902c0,-1.482 -0.388,-2.643 -1.164,-3.478c-0.776,-0.84 -1.905,-1.26 -3.387,-1.26c-0.621,0 -1.217,0.082 -1.789,0.244c-0.572,0.166 -1.079,0.42 -1.524,0.766c-0.445,0.35 -0.801,0.79 -1.07,1.32c-0.268,0.533 -0.401,1.168 -0.401,1.905l-3.918,0l0,-0.003Zm5.802,20.417c0,-0.643 0.194,-1.179 0.582,-1.613c0.389,-0.433 0.964,-0.652 1.725,-0.652c0.817,0 1.438,0.219 1.862,0.652c0.425,0.434 0.637,0.97 0.637,1.613c0,0.642 -0.212,1.171 -0.637,1.591c-0.424,0.42 -1.044,0.632 -1.862,0.632c-0.762,0 -1.337,-0.212 -1.725,-0.632c-0.389,-0.419 -0.582,-0.949 -0.582,-1.591Z" style="fill:#f15b6c;fill-rule:nonzero;"/><path d="M252.69,53.421c-0.836,0 -1.485,-0.243 -1.928,-0.72c-0.435,-0.471 -0.655,-1.071 -0.655,-1.779c0,-0.708 0.219,-1.311 0.652,-1.797c0.441,-0.493 1.091,-0.745 1.931,-0.745c0.891,0 1.583,0.249 2.06,0.736c0.474,0.485 0.714,1.093 0.714,1.806c0,0.714 -0.242,1.317 -0.718,1.788c-0.476,0.471 -1.168,0.711 -2.056,0.711Zm0,-4.49c-0.685,0 -1.182,0.183 -1.519,0.562c-0.345,0.385 -0.513,0.852 -0.513,1.428c0,0.575 0.167,1.034 0.509,1.404c0.334,0.359 0.847,0.543 1.523,0.543c0.736,0 1.298,-0.186 1.668,-0.552c0.373,-0.369 0.554,-0.826 0.554,-1.396c0,-0.572 -0.182,-1.036 -0.557,-1.42c-0.37,-0.377 -0.93,-0.569 -1.665,-0.569Zm2.054,-3.265l-4.473,0l0.003,-0.28c0.015,-1.023 0.088,-1.913 0.217,-2.644c0.131,-0.742 0.345,-1.428 0.636,-2.04c0.293,-0.61 0.679,-1.208 1.148,-1.778c0.458,-0.557 1.037,-1.193 1.72,-1.891c0.482,-0.495 0.943,-0.966 1.39,-1.407c0.433,-0.433 0.814,-0.883 1.132,-1.339c0.316,-0.45 0.573,-0.945 0.76,-1.469c0.186,-0.519 0.28,-1.127 0.28,-1.809c0,-1.405 -0.366,-2.512 -1.09,-3.292c-0.719,-0.777 -1.79,-1.171 -3.185,-1.171c-0.594,0 -1.171,0.078 -1.714,0.233c-0.535,0.155 -1.017,0.396 -1.43,0.717c-0.41,0.321 -0.743,0.734 -0.993,1.226c-0.247,0.491 -0.373,1.091 -0.373,1.781l0,0.275l-4.472,0l0.004,-0.279c0.014,-1.235 0.258,-2.356 0.726,-3.333c0.466,-0.978 1.109,-1.816 1.913,-2.496c0.8,-0.676 1.752,-1.199 2.833,-1.554c1.077,-0.353 2.255,-0.532 3.505,-0.532c1.379,0 2.624,0.194 3.702,0.577c1.08,0.38 2.006,0.939 2.756,1.663c0.744,0.719 1.318,1.605 1.707,2.636c0.385,1.018 0.579,2.17 0.579,3.421c0,0.985 -0.156,1.918 -0.462,2.778c-0.303,0.853 -0.715,1.674 -1.225,2.439c-0.509,0.767 -1.092,1.499 -1.733,2.175c-0.648,0.683 -1.314,1.346 -1.981,1.967c-0.737,0.682 -1.238,1.459 -1.491,2.312c-0.259,0.872 -0.391,1.826 -0.391,2.839l0,0.275l0.002,0Zm-3.911,-0.551l3.363,0c0.022,-0.964 0.16,-1.878 0.41,-2.721c0.282,-0.948 0.834,-1.81 1.642,-2.558c0.659,-0.614 1.317,-1.267 1.956,-1.942c0.62,-0.654 1.183,-1.36 1.676,-2.102c0.484,-0.727 0.877,-1.506 1.166,-2.318c0.285,-0.801 0.429,-1.672 0.429,-2.593c0,-1.184 -0.183,-2.27 -0.544,-3.227c-0.359,-0.952 -0.888,-1.77 -1.574,-2.432c-0.692,-0.668 -1.551,-1.187 -2.556,-1.541c-1.019,-0.362 -2.203,-0.545 -3.518,-0.545c-1.191,0 -2.312,0.17 -3.333,0.504c-1.013,0.333 -1.905,0.822 -2.649,1.451c-0.743,0.628 -1.338,1.406 -1.771,2.313c-0.397,0.831 -0.62,1.779 -0.665,2.823l3.364,0c0.031,-0.664 0.174,-1.253 0.426,-1.754c0.286,-0.565 0.671,-1.04 1.146,-1.412c0.469,-0.365 1.013,-0.639 1.618,-0.813c0.594,-0.169 1.22,-0.254 1.865,-0.254c1.555,0 2.762,0.454 3.59,1.348c0.821,0.885 1.237,2.119 1.237,3.667c0,0.746 -0.106,1.416 -0.312,1.994c-0.205,0.572 -0.483,1.111 -0.829,1.601c-0.336,0.482 -0.738,0.956 -1.194,1.412c-0.445,0.441 -0.905,0.91 -1.385,1.403c-0.672,0.686 -1.241,1.311 -1.688,1.856c-0.441,0.537 -0.803,1.096 -1.076,1.667c-0.269,0.566 -0.469,1.204 -0.591,1.898c-0.114,0.633 -0.181,1.398 -0.203,2.275Z" style="fill:#472b29;fill-rule:nonzero;"/></g><path d="M858.921,58.042c-23.584,0 -42.991,19.859 -42.991,43.993c0,24.134 19.407,43.993 42.991,43.993c23.584,0 42.991,-19.859 42.991,-43.993c0,-24.134 -19.407,-43.993 -42.991,-43.993Z" style="fill:#e6edb7;fill-rule:nonzero;"/><path d="M815.93,74.688c-1.275,0 -2.324,1.074 -2.324,2.378c0,1.305 1.049,2.378 2.324,2.378c1.275,0 2.324,-1.073 2.324,-2.378c0,-1.304 -1.049,-2.378 -2.324,-2.378Z" style="fill:#88ae45;fill-rule:nonzero;"/><path d="M890.293,56.853c-0.638,0 -1.162,0.537 -1.162,1.189c0,0.653 0.524,1.189 1.162,1.189c0.637,0 1.162,-0.536 1.162,-1.189c0,-0.652 -0.525,-1.189 -1.162,-1.189Zm6.971,-1.189c-2.549,0 -4.647,2.147 -4.647,4.756c0,2.609 2.098,4.756 4.647,4.756c2.55,0 4.648,-2.147 4.648,-4.756c0,-2.609 -2.098,-4.756 -4.648,-4.756Z" style="fill:#f1bc19;fill-rule:nonzero;"/><path d="M901.912,68.743c-1.275,0 -2.324,1.074 -2.324,2.378c0,1.305 1.049,2.378 2.324,2.378c1.275,0 2.324,-1.073 2.324,-2.378c0,-1.304 -1.049,-2.378 -2.324,-2.378Z" style="fill:#88ae45;fill-rule:nonzero;"/><path d="M894.94,130.571c-1.274,0 -2.323,1.074 -2.323,2.378c0,1.305 1.049,2.378 2.323,2.378c1.275,0 2.324,-1.073 2.324,-2.378c0,-1.304 -1.049,-2.378 -2.324,-2.378Zm-76.686,-17.835c-2.55,0 -4.648,2.147 -4.648,4.756c0,2.609 2.098,4.756 4.648,4.756c2.55,0 4.648,-2.147 4.648,-4.756c0,-2.609 -2.098,-4.756 -4.648,-4.756Z" style="fill:#fbcd59;fill-rule:nonzero;"/><path d="M829.873,143.65c-1.275,0 -2.324,1.074 -2.324,2.378c0,1.305 1.049,2.378 2.324,2.378c1.275,0 2.324,-1.073 2.324,-2.378c0,-1.304 -1.049,-2.378 -2.324,-2.378Z" style="fill:#88ae45;fill-rule:nonzero;"/><path d="M822.321,103.224c-1.594,0 -2.905,1.342 -2.905,2.973c0,1.63 1.311,2.972 2.905,2.972c1.593,0 2.904,-1.342 2.904,-2.972c0,-1.631 -1.311,-2.973 -2.904,-2.973Z" style="fill:#fff;fill-rule:nonzero;"/><path d="M825.225,121.059c-0.637,0 -1.162,0.537 -1.162,1.189c0,0.652 0.525,1.189 1.162,1.189c0.638,0 1.162,-0.537 1.162,-1.189c0,-0.652 -0.524,-1.189 -1.162,-1.189Z" style="fill:#f1bc19;fill-rule:nonzero;"/><path d="M893.779,81.822c-0.638,0 -1.162,0.537 -1.162,1.189c0,0.653 0.524,1.189 1.162,1.189c0.637,0 1.161,-0.536 1.161,-1.189c0,-0.652 -0.524,-1.189 -1.161,-1.189Z" style="fill:#fff;fill-rule:nonzero;"/><g><path d="M858.921,73.549c-15.271,0 -27.837,12.859 -27.837,28.486c0,15.627 12.566,28.486 27.837,28.486c15.271,0 27.837,-12.859 27.837,-28.486c0,-15.627 -12.566,-28.486 -27.837,-28.486Z" style="fill:#88ae45;fill-rule:nonzero;"/><path d="M858.921,73.975c15.12,0 27.421,12.588 27.421,28.06c0,15.473 -12.301,28.061 -27.421,28.061c-15.12,0 -27.421,-12.588 -27.421,-28.061c0,-15.472 12.301,-28.06 27.421,-28.06m0,-1.665c-16.043,0 -29.048,13.309 -29.048,29.725c0,16.417 13.005,29.725 29.048,29.725c16.043,0 29.048,-13.308 29.048,-29.725c0,-16.416 -13.005,-29.725 -29.048,-29.725Z" style="fill:#472b29;fill-rule:nonzero;"/><path d="M858.921,78.85c-12.429,0 -22.657,10.466 -22.657,23.185c0,12.719 10.228,23.186 22.657,23.186c12.429,0 22.657,-10.467 22.657,-23.186c0,-12.719 -10.228,-23.185 -22.657,-23.185Z" style="fill:#fdfcef;fill-rule:nonzero;"/><path d="M881.883,98.414c-0.05,-0.325 -0.346,-0.547 -0.664,-0.497c-0.317,0.049 -0.535,0.353 -0.484,0.678c1.082,7.106 -1.225,14.366 -6.169,19.422c-8.618,8.812 -22.64,8.812 -31.258,0c-8.618,-8.812 -8.618,-23.151 0,-31.964c8.618,-8.812 22.64,-8.812 31.258,0c0.904,0.925 1.735,1.952 2.54,3.14c0.184,0.27 0.545,0.338 0.81,0.15c0.261,-0.185 0.329,-0.557 0.146,-0.828c-0.845,-1.247 -1.72,-2.328 -2.674,-3.303c-9.071,-9.275 -23.831,-9.276 -32.904,0c-9.071,9.277 -9.071,24.37 0,33.646c9.072,9.276 23.831,9.277 32.904,0c5.206,-5.323 7.635,-12.966 6.495,-20.444Z" style="fill:#472b29;fill-rule:nonzero;"/><path d="M879.335,93.47c0.122,0.304 0.462,0.449 0.758,0.324c0.296,-0.123 0.44,-0.471 0.316,-0.775c-0.366,-0.911 -0.707,-1.659 -1.075,-2.351c-0.154,-0.289 -0.507,-0.394 -0.789,-0.237c-0.05,0.027 -0.096,0.063 -0.134,0.102c-0.178,0.182 -0.225,0.467 -0.1,0.705c0.35,0.653 0.675,1.363 1.024,2.232Z" style="fill:#472b29;fill-rule:nonzero;"/></g><g><path d="M848.464,100.103c-0.505,0 -0.979,0.201 -1.335,0.566c-0.357,0.365 -0.553,0.85 -0.553,1.366c0,0.516 0.196,1.001 0.553,1.366l8.133,8.323c0.357,0.365 0.831,0.566 1.335,0.566l0,0.446l0.036,-0.446c0.517,-0.01 1.01,-0.239 1.356,-0.625l12.781,-14.268c0.341,-0.381 0.516,-0.874 0.495,-1.39c-0.022,-0.516 -0.239,-0.99 -0.61,-1.34c-0.373,-0.348 -0.846,-0.535 -1.358,-0.506c-0.503,0.022 -0.968,0.243 -1.308,0.624l-11.45,12.78l-6.739,-6.896c-0.358,-0.365 -0.832,-0.566 -1.336,-0.566Z" style="fill:#88ae45;fill-rule:nonzero;"/><path d="M869.378,94.604c0.364,0 0.712,0.139 0.982,0.391c0.286,0.269 0.452,0.634 0.469,1.031c0.017,0.397 -0.118,0.776 -0.381,1.069l-12.781,14.268c-0.266,0.297 -0.645,0.473 -1.07,0.481c-0.388,0 -0.753,-0.154 -1.027,-0.435l-8.133,-8.323c-0.275,-0.28 -0.426,-0.654 -0.426,-1.051c0,-0.397 0.151,-0.77 0.427,-1.051c0.273,-0.28 0.638,-0.435 1.026,-0.435c0.388,0 0.753,0.155 1.027,0.435l7.061,7.226l0.614,-0.686l11.142,-12.438c0.278,-0.311 0.658,-0.482 1.07,-0.482m0,-0.892c-0.628,0 -1.255,0.259 -1.712,0.772l-11.142,12.437l-6.417,-6.567c-0.453,-0.465 -1.048,-0.697 -1.643,-0.697c-0.595,0 -1.19,0.232 -1.643,0.697c-0.908,0.929 -0.908,2.434 0,3.362l8.133,8.323c0.436,0.448 1.027,0.697 1.643,0.697l0.05,0c0.633,-0.014 1.234,-0.292 1.663,-0.77l12.781,-14.268c0.868,-0.968 0.803,-2.473 -0.143,-3.36c-0.446,-0.419 -1.009,-0.626 -1.57,-0.626Z" style="fill:#472b29;fill-rule:nonzero;"/></g><path d="M475.173,62.731c-21.981,0 -40.068,18.088 -40.068,40.068c0,21.981 18.087,40.068 40.068,40.068c21.981,0 40.068,-18.087 40.068,-40.068c0,-21.98 -18.087,-40.068 -40.068,-40.068Z" style="fill:#72caaf;fill-rule:nonzero;"/><path d="M469.561,135.236c-13.931,-2.388 -24.747,-13.38 -26.912,-27.349c-0.571,-3.688 -3.856,-6.252 -7.521,-6.011c-0.007,0.308 -0.023,0.614 -0.023,0.923c0,22.129 17.939,40.068 40.068,40.068c0.092,0 0.183,-0.005 0.275,-0.007c0.295,-3.652 -2.207,-6.992 -5.887,-7.624Z" style="fill:#5dbc9d;fill-rule:nonzero;"/><path d="M481.166,70.43c13.902,2.552 24.587,13.671 26.587,27.664c0.528,3.694 3.783,6.297 7.449,6.099c0.01,-0.307 0.03,-0.612 0.035,-0.923c0.262,-22.126 -17.464,-40.275 -39.592,-40.536c-0.091,-0.001 -0.183,0.005 -0.274,0.005c-0.34,3.647 2.123,7.017 5.795,7.691Z" style="fill:#97e0bb;fill-rule:nonzero;"/><path d="M507.751,99.525c-0.701,0 -1.312,-0.515 -1.414,-1.229c-0.236,-1.65 -0.604,-3.293 -1.096,-4.881c-0.234,-0.754 0.189,-1.557 0.943,-1.79c0.753,-0.236 1.557,0.187 1.79,0.943c0.537,1.733 0.939,3.523 1.195,5.323c0.112,0.783 -0.432,1.507 -1.215,1.619c-0.067,0.011 -0.136,0.015 -0.203,0.015Zm-2.929,-9.64c-0.532,0 -1.043,-0.298 -1.289,-0.809c-4.335,-8.989 -12.792,-15.433 -22.625,-17.238c-0.777,-0.143 -1.292,-0.888 -1.149,-1.665c0.144,-0.776 0.889,-1.293 1.666,-1.149c10.725,1.969 19.954,9.001 24.685,18.809c0.343,0.712 0.044,1.567 -0.667,1.91c-0.2,0.096 -0.412,0.142 -0.621,0.142Z" style="fill:#8d6c9f;fill-rule:nonzero;"/><path d="M475.173,144.298c-22.883,0 -41.499,-18.615 -41.499,-41.499c0,-22.883 18.616,-41.499 41.499,-41.499c22.883,0 41.499,18.616 41.499,41.499c0,22.884 -18.616,41.499 -41.499,41.499Zm0,-80.136c-21.305,0 -38.637,17.333 -38.637,38.637c0,21.305 17.332,38.637 38.637,38.637c21.305,0 38.637,-17.332 38.637,-38.637c0,-21.304 -17.332,-38.637 -38.637,-38.637Z" style="fill:#8d6c9f;fill-rule:nonzero;"/><path d="M441.33,109.877c-0.687,0 -1.294,-0.496 -1.41,-1.198c-0.128,-0.778 0.398,-1.516 1.178,-1.645l2.825,-0.468c0.776,-0.126 1.515,0.399 1.646,1.178c0.128,0.779 -0.4,1.516 -1.178,1.645l-2.825,0.468c-0.082,0.013 -0.159,0.02 -0.236,0.02Zm1.872,6.83c-0.573,0 -1.114,-0.346 -1.334,-0.911c-0.288,-0.737 0.076,-1.566 0.813,-1.853l2.666,-1.042c0.74,-0.286 1.567,0.077 1.853,0.813c0.288,0.737 -0.076,1.565 -0.813,1.853l-2.666,1.042c-0.172,0.067 -0.348,0.098 -0.519,0.098Zm3.235,6.301c-0.466,0 -0.924,-0.228 -1.198,-0.647c-0.433,-0.661 -0.247,-1.548 0.414,-1.98l2.394,-1.569c0.661,-0.433 1.548,-0.247 1.981,0.414c0.433,0.661 0.247,1.548 -0.414,1.98l-2.394,1.569c-0.242,0.157 -0.514,0.233 -0.783,0.233Zm4.451,5.508c-0.367,0 -0.733,-0.14 -1.012,-0.419c-0.56,-0.56 -0.56,-1.464 0,-2.024l2.025,-2.025c0.559,-0.559 1.464,-0.559 2.023,0c0.56,0.56 0.56,1.464 0,2.024l-2.025,2.025c-0.279,0.279 -0.645,0.419 -1.011,0.419Zm5.507,4.452c-0.269,0 -0.54,-0.076 -0.782,-0.235c-0.661,-0.432 -0.846,-1.319 -0.414,-1.98l1.567,-2.394c0.432,-0.66 1.32,-0.848 1.981,-0.414c0.661,0.432 0.845,1.319 0.413,1.98l-1.567,2.395c-0.275,0.42 -0.731,0.648 -1.198,0.648Zm6.301,3.235c-0.173,0 -0.349,-0.031 -0.519,-0.099c-0.737,-0.287 -1.101,-1.117 -0.813,-1.853l1.042,-2.666c0.287,-0.735 1.113,-1.1 1.853,-0.812c0.737,0.287 1.1,1.117 0.813,1.853l-1.042,2.666c-0.221,0.566 -0.761,0.911 -1.334,0.911Zm6.832,1.869c-0.078,0 -0.156,-0.006 -0.236,-0.02c-0.78,-0.129 -1.307,-0.866 -1.178,-1.646l0.468,-2.823c0.129,-0.778 0.866,-1.309 1.646,-1.178c0.779,0.129 1.306,0.866 1.177,1.646l-0.468,2.823c-0.116,0.702 -0.721,1.198 -1.409,1.198Z" style="fill:#8d6c9f;fill-rule:nonzero;"/></svg>